Simulation
nRows=20
nColumns=15
endheader
time  TH_x TH_y TH_z SC_y  SC_z  SC_x  AC_y  AC_z  AC_x  GH_y  GH_z  GH_yy  EL_x  PS_y
0.0  0.000000  0.000000  0.000000  -32.570470186921256  -0.42464574629933227  2.4377847691391943  45.063855561660226  7.613961258685014  -3.9323158809649894  -120.48977607179994  0.8348453866856284  138.8435514344664  22.242841046820796  0.000000
0.03  0.000000  0.000000  0.000000  -32.48724979856215  -0.2641506395480704  2.4343305081401336  44.9073344971202  7.799996818346468  -3.8775090776069527  -105.2714471324241  0.7431558314517213  123.85332252915833  22.408552914191393  0.000000
0.06  0.000000  0.000000  0.000000  -32.356513076152545  -0.21347900861970223  2.377905242676435  44.78575271434846  7.854591492203974  -3.8563098636141837  -80.68261283042852  0.6861649495870904  99.64489491806941  22.623056288199937  0.000000
0.09  0.000000  0.000000  0.000000  -32.357719007350205  -0.22014896587474966  2.2943266584513973  44.69064163388592  7.759075679129924  -3.8236871884672023  -46.254232158749126  0.8145749660440065  65.6050307158207  22.836249426068296  0.000000
0.12  0.000000  0.000000  0.000000  -32.42126087225261  -0.2678831067753384  2.1900877552461475  44.609124602897545  7.563573991233685  -3.79560390149342  -22.376320526029605  1.2906224478875743  42.02890070450517  23.029572832437335  0.000000
0.15  0.000000  0.000000  0.000000  -32.53654230661736  -0.3239742130150569  2.081239924142979  44.562346743177656  7.301162230092649  -3.763014390186823  -11.067095598719698  2.0781397797785384  30.87464756225942  23.188783467563688  0.000000
0.18  0.000000  0.000000  0.000000  -32.686803343662795  -0.3635998088208452  1.982122124323981  44.54048870653412  7.01257395875935  -3.7109155960125375  -6.002049486852237  3.1339144284694793  25.756478345039568  23.332762105672867  0.000000
0.21  0.000000  0.000000  0.000000  -32.8626375280765  -0.37321711719265005  1.9111335409503856  44.56267887543236  6.725417009935556  -3.628780384559712  -3.676793569466905  4.443747756195598  23.12623000046497  23.456058978813395  0.000000
0.24  0.000000  0.000000  0.000000  -33.05475527855079  -0.3518314676963821  1.8857163397500232  44.64581382848091  6.4662076856582535  -3.5104096734759467  -2.807384833897188  6.000726370948448  21.665937125713054  23.59175494110952  0.000000
0.27  0.000000  0.000000  0.000000  -33.26318462835823  -0.30528420033086234  1.9286782570954746  44.82365874441301  6.2459165910314445  -3.3557896565563405  -2.8402060299654837  7.803364448710544  20.802531724894468  23.774604559181977  0.000000
0.3  0.000000  0.000000  0.000000  -33.486641116813836  -0.2458874766480497  2.058025998720292  45.1082145037967  6.075402513034372  -3.175353774582563  -3.480387389359048  9.843755911668882  20.231828646074135  24.05413923723067  0.000000
0.32999999999999996  0.000000  0.000000  0.000000  -33.719797743197155  -0.17877752772241157  2.2803244545737273  45.487000487178115  5.964768869519143  -2.990821854300225  -4.430902102051301  12.100452598549182  19.689643244803186  24.445106618803305  0.000000
0.36  0.000000  0.000000  0.000000  -33.94561615201642  -0.09506624475893068  2.579033536526925  45.89736266439184  5.933910108355209  -2.827187975413343  -5.355154952734103  14.525771027203374  18.92350234532308  24.910788141087007  0.000000
0.39  0.000000  0.000000  0.000000  -34.14747694231898  0.02300376541965175  2.9188361033205106  46.2559959530532  6.008957839306392  -2.7079145497450794  -5.938329023286765  17.054164714193718  17.750081669706926  25.35486437123927  0.000000
0.42  0.000000  0.000000  0.000000  -34.315860595286445  0.18956277959350804  3.2664551038394483  46.48810292478022  6.2127069074130965  -2.6466452906808815  -6.003143699271919  19.61839892535008  16.130785811922053  25.67281357533949  0.000000
0.44999999999999996  0.000000  0.000000  0.000000  -34.45230892258181  0.4071007917694512  3.6067917009556365  46.57029705097802  6.549024270755069  -2.6445226557672536  -5.559191920463465  22.171974417980366  14.179240014458845  25.796865713211037  0.000000
0.48  0.000000  0.000000  0.000000  -34.561610101142975  0.6636149883796255  3.9474007443754657  46.530103348277926  7.002161469795494  -2.687847048879498  -4.777251404787279  24.692580349036255  12.11309854234534  25.723453100574353  0.000000
0.51  0.000000  0.000000  0.000000  -34.64919425291708  0.9407517130263128  4.307730332931149  46.425363551092225  7.542024534775656  -2.758539696474936  -3.8856821592898245  27.173637098315783  10.163212070996181  25.489060520909142  0.000000
0.54  0.000000  0.000000  0.000000  -34.72254399685248  1.2194538897928124  4.704268525815162  46.30731998348093  8.13953284442676  -2.843763651472692  -3.0556042364827625  29.609230746413655  8.484465471120853  25.139358113213365  0.000000
0.57  0.000000  0.000000  0.000000  -34.79360634590137  1.4852246715586075  5.12693477750655  46.19699518364398  8.783660426874658  -2.9271957020709856  -2.3534663851014304  31.98756584549274  7.120648740165087  24.7102330960624  0.000000
